Fly_normalized_Motion_pl09
version=1
nRows=14
nColumns=43
inDegrees=yes
endheader
time		pelvis_tilt		pelvis_list		pelvis_rotation		pelvis_tx		pelvis_ty		pelvis_tz		hip_flexion_r		hip_adduction_r		hip_rotation_r		knee_angle_r		ankle_angle_r		subtalar_angle_r		mtp_angle_r		hip_flexion_l		hip_adduction_l		hip_rotation_l		knee_angle_l		ankle_angle_l		subtalar_angle_l		mtp_angle_l		lumbar_extension		lumbar_bending		lumbar_rotation		neck_flexion		neck_lateral_bending		neck_rotation		arm_flex_r		arm_add_r		arm_rot_r		elbow_flex_r		pro_sup_r		wrist_flex_r		wrist_dev_r		hand_finger_flex_r		arm_flex_l		arm_add_l		arm_rot_l		elbow_flex_l		pro_sup_l		wrist_flex_l		wrist_dev_l		hand_finger_flex_l		
2.475783		4.527949		-8.437041		94.409195		-0.023781		1.532917		0.936140		44.341608		-4.452274		-13.311986		-46.376242		-20.869022		-1.607250		26.571411		39.485589		-9.697227		-4.902529		-57.756802		-15.302366		-2.489259		11.468643		-27.543532		4.022157		0.555262		-4.476666		7.182446		-1.999189		11.981243		-40.280795		-3.126077		71.304881		113.442016		6.193989		-3.760336		-31.590485		8.226232		-52.470413		1.006127		87.722261		111.693915		-6.782075		1.043918		-18.171198		
2.479848		4.394316		-8.254287		94.532921		-0.023710		1.525069		0.928082		43.590273		-4.418826		-13.183312		-45.044606		-21.127344		-1.597740		26.264693		39.044770		-9.447433		-4.993668		-56.135374		-15.670199		-1.584417		11.393586		-27.576302		3.931467		0.523566		-4.510051		7.177661		-2.154173		9.257692		-40.472730		-4.696905		71.881530		113.442598		6.259735		-3.791846		-31.532241		5.207634		-53.303862		-0.593197		88.673287		111.733184		-6.915197		0.859743		-17.990416		
2.483914		4.282183		-8.115317		94.627453		-0.023649		1.516992		0.919855		42.876170		-4.370708		-13.114866		-43.743323		-21.395170		-1.525715		26.032634		38.602616		-9.197718		-5.050636		-54.458920		-16.135363		-0.831756		11.347786		-27.460167		3.880420		0.542760		-4.954696		7.123453		-2.285403		6.517971		-40.542781		-6.299964		72.339489		113.375788		6.180435		-3.832468		-31.582062		2.221065		-53.995083		-2.083548		89.374963		111.795611		-7.115122		0.619661		-17.829380		
2.487980		4.163350		-7.943886		94.693883		-0.023649		1.508685		0.911685		42.154064		-4.308119		-12.931250		-42.469171		-21.625731		-1.419680		25.696804		38.158047		-8.983373		-5.154070		-52.896620		-16.463302		-0.016506		11.372198		-27.476699		3.832873		0.441816		-4.951013		7.005377		-2.327924		3.924319		-40.665708		-7.743673		72.928793		113.475384		6.481146		-3.831751		-31.546569		-1.413800		-54.663506		-4.362592		90.354491		112.096114		-7.165210		0.160882		-17.357822		
2.492045		4.062787		-7.826766		94.749187		-0.023615		1.500259		0.903322		41.460620		-4.224387		-12.791674		-41.182386		-21.880169		-1.242424		25.344104		37.713385		-8.771031		-5.266218		-51.263182		-16.872444		0.588788		11.495176		-27.337365		3.806957		0.155044		-5.413777		6.838140		-2.106963		1.754264		-40.656272		-8.715876		73.188578		113.577253		6.775037		-3.801808		-31.644855		-5.581519		-55.035205		-7.254916		91.258740		112.728345		-7.202335		-0.328466		-16.655919		
2.496111		3.992651		-7.833529		94.859481		-0.023647		1.491340		0.895051		40.936096		-4.160061		-12.666756		-39.974170		-22.105415		-1.063445		25.202526		37.463802		-8.538404		-5.308857		-49.716332		-17.330030		1.069479		11.535604		-27.080553		3.809104		0.186946		-5.587880		6.726513		-2.313372		-1.148282		-40.703359		-10.232618		73.717971		113.337386		6.546317		-4.017342		-31.822569		-8.997779		-55.497904		-9.160474		91.991572		112.995370		-7.528086		-0.790050		-16.439580		
2.500177		3.941126		-7.798901		94.943620		-0.023526		1.482368		0.886666		40.403797		-4.050068		-12.541208		-38.855767		-22.368542		-0.866048		25.121910		37.116782		-8.351086		-5.397471		-48.110969		-17.779895		1.414807		11.541047		-26.834260		3.803654		0.271753		-5.919272		6.608420		-2.594724		-4.101765		-40.593527		-11.866329		74.265554		113.112236		6.410019		-4.094233		-31.870020		-12.360844		-55.844299		-11.107099		92.646776		113.330722		-7.755762		-1.240773		-16.216386		
2.504242		3.795395		-7.710280		94.979127		-0.023601		1.473226		0.878386		39.808136		-4.033427		-12.264072		-37.711458		-22.598621		-0.642194		25.013819		36.703207		-8.115001		-5.592652		-46.544391		-18.190434		1.582868		11.571844		-26.683871		3.722601		-0.042220		-6.093849		6.511761		-2.480667		-6.374578		-40.592814		-12.785344		74.711721		113.093769		6.551657		-4.018575		-31.644407		-16.940084		-55.917074		-14.422527		93.613499		114.306005		-7.796459		-1.826191		-15.581443		
2.508308		3.755090		-7.657202		95.110951		-0.023697		1.463832		0.869992		39.265742		-3.993694		-12.178409		-36.657586		-22.870035		-0.448251		24.946582		36.351416		-7.942034		-5.717244		-44.983683		-18.641125		1.604073		11.526949		-26.364605		3.770879		-0.014903		-6.820163		6.415416		-2.669586		-9.280869		-40.475781		-14.198945		75.190751		112.888004		6.200090		-4.144742		-31.691509		-20.405522		-56.143342		-16.346914		94.221288		114.668314		-8.125997		-2.154871		-15.420720		
2.512374		3.611751		-7.598738		95.178372		-0.023739		1.454170		0.861832		38.769212		-4.005502		-11.947768		-35.655761		-23.045018		-0.220465		24.899546		35.966944		-7.696168		-5.963215		-43.421398		-19.056406		1.430037		11.421242		-26.199363		3.673199		-0.003262		-6.836487		6.301477		-2.923119		-12.250030		-40.324368		-15.724627		75.902439		112.651891		6.069171		-4.176245		-31.484313		-24.239006		-56.254182		-18.803623		95.032808		115.209619		-8.479578		-2.678424		-15.166667		
2.516439		3.497264		-7.504902		95.232075		-0.023839		1.444406		0.853474		38.228889		-4.016863		-11.849149		-34.689744		-23.257285		-0.018326		24.859034		35.493547		-7.492237		-6.239849		-41.809382		-19.431605		1.201449		11.255995		-25.945420		3.622100		-0.069897		-7.497661		6.179548		-2.904789		-14.963505		-40.114594		-16.951471		76.386322		112.477038		5.762965		-4.275836		-31.263165		-28.181699		-56.220181		-21.271988		95.742320		115.805835		-8.847870		-3.071968		-14.835225		
2.520505		3.433091		-7.387518		95.320102		-0.024020		1.434523		0.845009		37.672162		-4.012156		-11.840169		-33.769863		-23.557631		0.153335		24.826105		34.987623		-7.330410		-6.510507		-40.192551		-19.764531		1.022843		11.078612		-25.620989		3.635695		-0.041017		-8.625677		6.045959		-2.848952		-17.769782		-39.873824		-18.192215		76.778733		112.298851		5.406949		-4.414288		-31.135138		-31.741912		-56.170529		-23.301517		96.323556		116.252775		-9.203852		-3.366874		-14.566677		
2.524571		3.302315		-7.269137		95.318492		-0.024101		1.424417		0.836570		37.122704		-4.023653		-11.785623		-32.850347		-23.771072		0.280868		24.820082		34.455415		-7.141132		-6.849742		-38.601660		-20.040090		0.809863		10.786589		-25.368809		3.544756		-0.191323		-9.374111		5.962988		-2.657180		-20.292103		-39.684301		-19.077394		77.191783		112.143433		5.069762		-4.618723		-30.811474		-35.963781		-55.809668		-26.076994		97.091120		116.964839		-9.640069		-3.750535		-14.060706		
2.528636		3.287449		-7.221055		95.362177		-0.024176		1.413923		0.828176		36.662014		-3.951373		-11.875244		-31.952692		-23.974591		0.311561		24.796446		34.069842		-7.027984		-7.055329		-37.115892		-20.213117		0.660924		10.614441		-25.058855		3.587849		-0.014398		-9.826999		5.834482		-2.985123		-23.390172		-39.301897		-20.539695		77.842337		111.907863		4.665782		-4.964205		-30.813898		-39.505978		-55.621411		-28.028690		97.714438		117.311378		-10.139933		-4.071040		-13.921277		
